<svg width="248" height="1024" viewBox="0 0 248 1024" fill="none" xmlns="http://www.w3.org/2000/svg">
<mask id="path-1-inside-1_800_234" fill="white">
<path fill-rule="evenodd" clip-rule="evenodd" d="M52.8029 1024H248V0H32.018C33.1236 10.0089 34.2027 20.648 35.2373 31.991C48.0129 172.053 37.8815 220.476 22.9366 291.905C21.2115 300.15 19.4223 308.702 17.5968 317.736C-7.84113 443.628 -3.80322 593.768 17.5968 699.81C22.4361 723.789 27.4595 744.916 32.2243 764.955C48.53 833.531 61.8082 889.374 54.324 1003.27C53.856 1010.39 53.3473 1017.3 52.8029 1024Z"/>
</mask>
<path fill-rule="evenodd" clip-rule="evenodd" d="M52.8029 1024H248V0H32.018C33.1236 10.0089 34.2027 20.648 35.2373 31.991C48.0129 172.053 37.8815 220.476 22.9366 291.905C21.2115 300.15 19.4223 308.702 17.5968 317.736C-7.84113 443.628 -3.80322 593.768 17.5968 699.81C22.4361 723.789 27.4595 744.916 32.2243 764.955C48.53 833.531 61.8082 889.374 54.324 1003.27C53.856 1010.39 53.3473 1017.3 52.8029 1024Z" fill="#669EFF"/>
<path d="M248 1024V1049H273V1024H248ZM52.8028 1024L27.8849 1021.98L25.6902 1049H52.8028V1024ZM248 0H273V-25H248V0ZM32.0179 0V-25H4.10443L7.16907 2.74477L32.0179 0ZM35.2373 31.991L60.1339 29.7201V29.7201L35.2373 31.991ZM22.9366 291.905L47.4067 297.025H47.4067L22.9366 291.905ZM17.5967 317.736L42.1015 322.688L17.5967 317.736ZM17.5968 699.81L42.1027 694.864L17.5968 699.81ZM32.2242 764.955L7.90234 770.738H7.90234L32.2242 764.955ZM54.3239 1003.27L79.2701 1004.91V1004.91L54.3239 1003.27ZM248 999H52.8028V1049H248V999ZM223 0V1024H273V0H223ZM32.0179 25H248V-25H32.0179V25ZM7.16907 2.74477C8.25722 12.596 9.32041 23.0772 10.3406 34.262L60.1339 29.7201C59.0848 18.2189 57.9898 7.42178 56.8668 -2.74477L7.16907 2.74477ZM10.3406 34.262C22.8472 171.375 13.0117 217.266 -1.53357 286.785L47.4067 297.025C62.7512 223.686 73.1785 172.731 60.1339 29.7201L10.3406 34.262ZM-1.53356 286.785C-3.25659 295.021 -5.06292 303.654 -6.90801 312.785L42.1015 322.688C43.9075 313.75 45.6796 305.28 47.4067 297.025L-1.53356 286.785ZM-6.90801 312.785C-33.0568 442.194 -28.9155 595.709 -6.9092 704.755L42.1027 694.864C21.309 591.827 17.3744 445.061 42.1015 322.688L-6.90801 312.785ZM-6.9092 704.755C-1.97404 729.21 3.14377 750.725 7.90234 770.738L56.5461 759.172C51.7751 739.106 46.8462 718.369 42.1027 694.864L-6.9092 704.755ZM7.90234 770.738C23.9426 838.197 36.6285 891.286 29.3777 1001.63L79.2701 1004.91C86.9877 887.461 73.1173 828.864 56.5461 759.172L7.90234 770.738ZM29.3777 1001.63C28.9181 1008.62 28.4188 1015.4 27.8849 1021.98L77.7208 1026.02C78.2756 1019.19 78.7937 1012.16 79.2701 1004.91L29.3777 1001.63Z" fill="#80AEFF" mask="url(#path-1-inside-1_800_234)"/>
</svg>
