<svg width="64" height="736" viewBox="0 0 64 736" fill="none" xmlns="http://www.w3.org/2000/svg">
<mask id="path-1-inside-1_800_1102" fill="white">
<path fill-rule="evenodd" clip-rule="evenodd" d="M64 0L0 0V736H54.4739C50.517 714.987 44.5298 681.712 39.213 594.523C27.1418 396.568 29.6765 305.612 51.2247 146.098C57.5447 99.3135 61.7168 49.8858 64 0Z"/>
</mask>
<path fill-rule="evenodd" clip-rule="evenodd" d="M64 0L0 0V736H54.4739C50.517 714.987 44.5298 681.712 39.213 594.523C27.1418 396.568 29.6765 305.612 51.2247 146.098C57.5447 99.3135 61.7168 49.8858 64 0Z" fill="#FF6666"/>
<path d="M0 0L0 -12H-12V0H0ZM64 0L75.9875 0.548643L76.5618 -12H64V0ZM0 736H-12V748H0V736ZM54.4739 736V748H68.9445L66.2666 733.779L54.4739 736ZM39.213 594.523L27.2353 595.253L39.213 594.523ZM51.2247 146.098L63.1167 147.704L51.2247 146.098ZM0 12H64V-12H0L0 12ZM12 736V0H-12V736H12ZM54.4739 724H0V748H54.4739V724ZM66.2666 733.779C62.4098 713.297 56.4796 680.522 51.1908 593.792L27.2353 595.253C32.5801 682.901 38.6242 716.676 42.6812 738.221L66.2666 733.779ZM51.1908 593.792C39.1571 396.454 41.693 306.297 63.1167 147.704L39.3327 144.492C17.66 304.927 15.1264 396.682 27.2353 595.253L51.1908 593.792ZM63.1167 147.704C69.4914 100.515 73.6908 50.7293 75.9875 0.548643L52.0126 -0.548643C49.7429 49.0423 45.598 98.112 39.3327 144.492L63.1167 147.704Z" fill="#FF8080" mask="url(#path-1-inside-1_800_1102)"/>
</svg>
