<svg width="64" height="736" viewBox="0 0 64 736" fill="none" xmlns="http://www.w3.org/2000/svg">
<mask id="path-1-inside-1_800_1105" fill="white">
<path fill-rule="evenodd" clip-rule="evenodd" d="M0.853482 736H64.0001V0L0 0C4.8552 54.3209 10.0588 120.733 14.552 206.782C29.401 491.151 18.0431 592.385 0.853482 736Z"/>
</mask>
<path fill-rule="evenodd" clip-rule="evenodd" d="M0.853482 736H64.0001V0L0 0C4.8552 54.3209 10.0588 120.733 14.552 206.782C29.401 491.151 18.0431 592.385 0.853482 736Z" fill="#669EFF"/>
<path d="M64.0001 736V748H76.0001V736H64.0001ZM0.853482 736L-11.0615 734.574L-12.6685 748H0.853482V736ZM64.0001 0H76.0001V-12H64.0001V0ZM0 0L0 -12H-13.1204L-11.9524 1.0683L0 0ZM14.552 206.782L2.56834 207.408V207.408L14.552 206.782ZM64.0001 724H0.853482V748H64.0001V724ZM52.0001 0V736H76.0001V0H52.0001ZM0 12H64.0001V-12H0L0 12ZM-11.9524 1.0683C-7.10805 55.2673 -1.91597 121.53 2.56834 207.408L26.5357 206.156C22.0335 119.936 16.8184 53.3745 11.9524 -1.0683L-11.9524 1.0683ZM2.56834 207.408C17.3766 490.996 6.05901 591.536 -11.0615 734.574L12.7684 737.426C30.0272 593.233 41.4255 491.307 26.5357 206.156L2.56834 207.408Z" fill="#80AEFF" mask="url(#path-1-inside-1_800_1105)"/>
</svg>
