<svg width="248" height="1024" viewBox="0 0 248 1024" fill="none" xmlns="http://www.w3.org/2000/svg">
<mask id="path-1-inside-1_800_231" fill="white">
<path fill-rule="evenodd" clip-rule="evenodd" d="M228.051 0C228.384 5.61045 228.56 11.5465 228.56 17.8456C228.56 51.7649 220.623 99.2715 211.77 152.26C200.606 219.074 187.987 294.605 187.987 362.603C187.987 469.308 202.832 530.31 224.129 617.828C225.577 623.779 227.055 629.852 228.56 636.071C252.202 733.747 256.662 872.043 228.56 988.003C225.525 1000.53 222.778 1012.48 220.314 1024H0V0H228.051Z"/>
</mask>
<path fill-rule="evenodd" clip-rule="evenodd" d="M228.051 0C228.384 5.61045 228.56 11.5465 228.56 17.8456C228.56 51.7649 220.623 99.2715 211.77 152.26C200.606 219.074 187.987 294.605 187.987 362.603C187.987 469.308 202.832 530.31 224.129 617.828C225.577 623.779 227.055 629.852 228.56 636.071C252.202 733.747 256.662 872.043 228.56 988.003C225.525 1000.53 222.778 1012.48 220.314 1024H0V0H228.051Z" fill="#FF6666"/>
<path d="M228.051 0L253.007 -1.4787L251.614 -25H228.051V0ZM211.77 152.26L236.428 156.38L211.77 152.26ZM224.129 617.828L248.42 611.917L224.129 617.828ZM228.56 636.071L204.262 641.952L204.262 641.952L228.56 636.071ZM228.56 988.003L204.264 982.115L228.56 988.003ZM220.314 1024V1049H240.533L244.761 1029.23L220.314 1024ZM0 1024H-25V1049H0V1024ZM0 0L0 -25H-25V0H0ZM253.56 17.8456C253.56 11.0788 253.371 4.64899 253.007 -1.4787L203.095 1.4787C203.397 6.57191 203.56 12.0141 203.56 17.8456H253.56ZM236.428 156.38C245.13 104.299 253.56 54.3429 253.56 17.8456H203.56C203.56 49.187 196.117 94.2435 187.112 148.14L236.428 156.38ZM212.987 362.603C212.987 297.064 225.186 223.663 236.428 156.38L187.112 148.14C176.027 214.486 162.987 292.145 162.987 362.603H212.987ZM248.42 611.917C227.218 524.79 212.987 466.187 212.987 362.603H162.987C162.987 472.429 178.446 535.831 199.838 623.739L248.42 611.917ZM252.859 630.19C251.349 623.954 249.868 617.866 248.42 611.917L199.838 623.739C201.287 629.692 202.761 635.751 204.262 641.952L252.859 630.19ZM252.857 993.891C281.969 873.762 277.36 731.419 252.859 630.19L204.262 641.952C227.043 736.075 231.355 870.325 204.264 982.115L252.857 993.891ZM244.761 1029.23C247.17 1017.96 249.865 1006.24 252.857 993.891L204.264 982.115C201.184 994.821 198.386 1006.99 195.867 1018.77L244.761 1029.23ZM220.314 999H0V1049H220.314V999ZM25 1024V0H-25V1024H25ZM0 25H228.051V-25H0L0 25Z" fill="#FF8080" mask="url(#path-1-inside-1_800_231)"/>
</svg>
