<svg width="390" height="298" viewBox="0 0 390 298" fill="none" xmlns="http://www.w3.org/2000/svg">
<g clip-path="url(#clip0_964_355)">
<path d="M388.938 46.1518C388.421 45.1679 387.657 43.7126 380.789 43.5982C380.455 41.5434 380.249 39.42 380.052 37.347C379.508 31.7776 379.004 26.5423 376.071 22.8813C374.795 21.3024 372.081 19.5497 362.88 19.2568C362.88 19.2111 362.88 19.1653 362.88 19.1195C361.507 10.658 358.546 4.88723 354.144 1.96755C351.823 0.348153 348.964 -0.308002 346.169 0.137026C249.497 14.7354 172.048 16.4744 124.113 15.3853C65.575 14.0444 33.8011 8.41557 28.4795 6.98318C27.0414 6.59738 25.5166 6.69268 24.1377 7.25454C22.7588 7.81641 21.6016 8.81398 20.8426 10.0951C17.8763 15.0995 15.3148 20.3332 13.1828 25.746C10.5243 27.723 1.69764 34.9536 0.210525 45.8269C-0.791563 53.1993 1.77543 60.5672 7.82457 67.7291C8.86157 75.5479 11.2278 83.1318 14.8209 90.153C15.4344 91.3316 16.4188 92.2754 17.6221 92.8386C18.8254 93.4019 20.1807 93.5533 21.4786 93.2694C25.9628 93.48 29.9346 95.4935 33.6089 99.4337C44.2429 110.833 51.5229 138.236 54.6573 178.691C57.2426 212.015 56.6157 246.914 55.6365 270.322C55.4178 276.044 57.4466 281.623 61.2887 285.868C65.1308 290.112 70.4812 292.685 76.1954 293.034C146.474 297.03 222.395 296.865 277.835 296.746C313.695 296.673 339.607 296.618 346.572 297.775C347.397 297.916 348.233 297.988 349.07 297.991C349.766 297.987 350.462 297.94 351.152 297.849C351.344 297.849 351.61 297.798 351.715 297.794C353.907 298.096 358.167 297.551 362.454 290.728C366.925 283.616 370.498 271.201 373.079 253.829C375.952 234.453 375.44 200.08 371.555 151.668C369.18 122.091 366.202 96.0701 365.199 87.5994C365.721 87.4158 366.191 87.1116 366.572 86.7116C368.233 84.9634 368.014 82.1078 367.574 76.4149C367.41 74.2732 367.217 71.77 367.117 69.0379C369.313 69.2667 372.461 69.4132 374.969 69.4132H375.074C383.127 69.4132 385.511 68.2782 386.6 66.5758C388.33 63.8667 391.748 51.5564 388.938 46.1518ZM374.571 37.8641C374.754 39.7953 374.941 41.7631 375.234 43.7401C374.099 43.8041 372.855 43.8957 371.514 44.0101C371.868 43.2992 372.251 42.5991 372.663 41.9096C372.847 41.5995 372.969 41.2561 373.02 40.899C373.072 40.5419 373.053 40.1781 372.964 39.8283C372.875 39.4786 372.719 39.1498 372.503 38.8606C372.287 38.5715 372.016 38.3278 371.706 38.1433C371.396 37.9588 371.053 37.8371 370.696 37.7854C370.339 37.7336 369.975 37.7526 369.625 37.8415C369.276 37.9303 368.947 38.0871 368.658 38.303C368.369 38.5189 368.125 38.7896 367.94 39.0997C360.162 52.133 361.379 67.5964 362.093 76.8359C362.239 78.7305 362.408 80.9546 362.39 82.3275C357.444 82.4419 346.183 83.2428 340.815 83.6043C341.168 74.0718 341.785 60.8783 343.067 48.5818C344.224 37.4568 345.62 30.1668 346.947 25.3891C349.235 25.1786 353.44 24.8399 357.837 24.7438C369.913 24.4876 371.738 26.2815 371.802 26.3501C373.697 28.6886 374.122 33.1459 374.571 37.8641ZM5.64651 46.6048C6.16985 43.2232 7.50089 40.0176 9.52674 37.26C7.96827 43.5205 7.14971 49.9423 7.08787 56.3936C5.73424 53.3202 5.23623 49.938 5.64651 46.6048ZM19.6757 87.5994C16.3072 81.2091 14.0907 74.2753 13.1279 67.1159C13.2443 66.5361 13.1705 65.9342 12.9174 65.3997C10.3092 41.5526 21.291 20.1721 25.5876 12.882C25.7339 12.635 25.9574 12.4429 26.2237 12.3353C26.4899 12.2278 26.7842 12.2109 27.061 12.2871C43.3095 16.6758 164.292 33.1597 347.043 5.56453C347.121 5.55369 347.199 5.53841 347.276 5.51876C348.63 5.39547 349.982 5.7625 351.088 6.55301C353.142 7.9259 355.86 11.2254 357.315 19.2614C354.204 19.3346 351.248 19.5223 348.96 19.719C349.811 17.9206 350.539 17.0739 351.028 16.6758C351.573 16.2115 351.915 15.5528 351.981 14.8401C352.047 14.1275 351.832 13.4171 351.383 12.8605C350.933 12.3038 350.283 11.9448 349.573 11.8599C348.862 11.775 348.147 11.971 347.578 12.4061C345.469 14.0948 343.712 17.3897 342.266 21.9065C342.238 21.9797 342.216 22.0575 342.193 22.1353C337.525 36.8482 335.956 64.0451 335.1 90.2354C335.054 91.6449 335.013 92.8713 334.977 93.8964C321.588 91.1506 265.187 82.2817 201.365 77.6459C164.539 74.9734 131.48 74.1771 103.11 75.28C68.2839 76.6529 40.4634 80.8814 20.4262 87.9014C20.2859 87.9528 20.1315 87.9504 19.9929 87.8946C19.8543 87.8388 19.7413 87.7337 19.6757 87.5994ZM367.647 253.028C361.676 293.236 352.548 292.385 352.456 292.385C351.806 292.309 351.149 292.323 350.502 292.426C349.494 292.573 348.469 292.562 347.464 292.394C340.042 291.154 313.937 291.208 277.807 291.286C222.441 291.405 146.607 291.57 76.4745 287.584C72.1979 287.322 68.1937 285.396 65.3187 282.219C62.4437 279.041 60.9262 274.865 61.0908 270.583C62.0746 247.029 62.7061 211.892 60.1025 178.297C56.8217 135.994 49.2488 108.211 37.5944 95.7178C35.6476 93.5893 33.3701 91.789 30.8497 90.3864C119.335 65.5508 307.472 93.9101 333.874 99.2964C334.235 99.3692 334.603 99.406 334.972 99.4063C336.385 99.4037 337.742 98.8543 338.759 97.8733C339.776 96.8922 340.373 95.5555 340.426 94.1435C340.463 93.1184 340.504 91.8554 340.55 90.4367C340.55 90.0203 340.577 89.5855 340.596 89.1416C346.334 88.7252 354.533 88.1714 359.672 87.938C361.809 105.712 373.838 211.37 367.647 253.028ZM384.079 56.421C383.712 58.7782 383.064 61.0829 382.148 63.2855C379.814 64.2007 370.301 63.9536 367.108 63.5189C367.203 58.8219 367.925 54.1587 369.254 49.6527C369.463 49.6779 369.675 49.6779 369.885 49.6527C375.376 49.1172 382.025 48.8976 384.289 49.3369C384.601 50.5862 384.688 52.9385 384.079 56.421Z" fill="#F2F7FF"/>
<path d="M181.273 155.755L153.84 183.207V137.92C153.84 137.411 153.637 136.922 153.277 136.562C152.917 136.202 152.429 136 151.92 136C151.411 136 150.922 136.202 150.562 136.562C150.202 136.922 150 137.411 150 137.92V230.069C150 230.578 150.202 231.067 150.562 231.427C150.922 231.787 151.411 231.989 151.92 231.989C152.429 231.989 152.917 231.787 153.277 231.427C153.637 231.067 153.84 230.578 153.84 230.069V188.621L183.999 158.481C184.178 158.302 184.32 158.089 184.417 157.855C184.514 157.621 184.564 157.371 184.564 157.118C184.564 156.864 184.514 156.614 184.417 156.38C184.32 156.146 184.178 155.934 183.999 155.755C183.82 155.576 183.608 155.434 183.374 155.337C183.14 155.24 182.889 155.19 182.636 155.19C182.383 155.19 182.132 155.24 181.899 155.337C181.665 155.434 181.452 155.576 181.273 155.755Z" fill="#F2F7FF"/>
<path d="M276.148 228.706L245.989 198.566V137.92C245.989 137.411 245.786 136.922 245.426 136.562C245.066 136.202 244.578 136 244.069 136C243.56 136 243.071 136.202 242.711 136.562C242.351 136.922 242.149 137.411 242.149 137.92V198.566L211.989 228.706C211.81 228.885 211.668 229.098 211.572 229.331C211.475 229.565 211.425 229.816 211.425 230.069C211.425 230.322 211.475 230.573 211.572 230.807C211.668 231.041 211.81 231.253 211.989 231.432C212.168 231.611 212.381 231.753 212.615 231.85C212.849 231.947 213.099 231.997 213.352 231.997C213.606 231.997 213.856 231.947 214.09 231.85C214.324 231.753 214.536 231.611 214.715 231.432L242.149 203.979V230.069C242.149 230.578 242.351 231.067 242.711 231.427C243.071 231.787 243.56 231.989 244.069 231.989C244.578 231.989 245.066 231.787 245.426 231.427C245.786 231.067 245.989 230.578 245.989 230.069V203.979L273.422 231.432C273.601 231.612 273.813 231.755 274.047 231.852C274.281 231.95 274.532 232 274.785 232C275.039 232 275.29 231.95 275.524 231.852C275.758 231.755 275.97 231.612 276.148 231.432C276.328 231.254 276.471 231.041 276.569 230.807C276.666 230.573 276.716 230.323 276.716 230.069C276.716 229.816 276.666 229.565 276.569 229.331C276.471 229.097 276.328 228.885 276.148 228.706Z" fill="#F2F7FF"/>
</g>
<defs>
<clipPath id="clip0_964_355">
<rect width="390" height="298" fill="white"/>
</clipPath>
</defs>
</svg>
