<svg width="390" height="298" viewBox="0 0 390 298" fill="none" xmlns="http://www.w3.org/2000/svg">
<g clip-path="url(#clip0_964_522)">
<path d="M1.0618 46.1518C1.57886 45.1679 2.34302 43.7126 9.21121 43.5982C9.54523 41.5434 9.75113 39.42 9.94791 37.347C10.4924 31.7776 10.9958 26.5423 13.9288 22.8813C15.2054 21.3024 17.9189 19.5497 27.1207 19.2568C27.1207 19.2111 27.1207 19.1653 27.1207 19.1195C28.4934 10.658 31.4539 4.88723 35.8558 1.96755C38.1772 0.348153 41.0361 -0.308002 43.8313 0.137026C140.503 14.7354 217.952 16.4744 265.888 15.3853C324.425 14.0444 356.199 8.41557 361.521 6.98318C362.959 6.59738 364.484 6.69268 365.863 7.25454C367.241 7.81641 368.399 8.81398 369.158 10.0951C372.124 15.0995 374.685 20.3332 376.817 25.746C379.476 27.723 388.303 34.9536 389.79 45.8269C390.792 53.1993 388.225 60.5672 382.176 67.7291C381.139 75.5479 378.772 83.1318 375.179 90.153C374.566 91.3316 373.581 92.2754 372.378 92.8386C371.175 93.4019 369.82 93.5533 368.522 93.2694C364.037 93.48 360.066 95.4935 356.391 99.4337C345.757 110.833 338.477 138.236 335.343 178.691C332.758 212.015 333.385 246.914 334.364 270.322C334.582 276.044 332.554 281.623 328.712 285.868C324.869 290.112 319.519 292.685 313.805 293.034C243.526 297.03 167.605 296.865 112.165 296.746C76.3054 296.673 50.3929 296.618 43.4286 297.775C42.6032 297.916 41.7676 297.988 40.9303 297.991C40.234 297.987 39.5386 297.94 38.8483 297.849C38.6561 297.849 38.3907 297.798 38.2855 297.794C36.0937 298.096 31.8337 297.551 27.5462 290.728C23.0757 283.616 19.502 271.201 16.9213 253.829C14.0478 234.453 14.5602 200.08 18.4451 151.668C20.8199 122.091 23.7987 96.0701 24.8008 87.5994C24.2796 87.4158 23.8093 87.1116 23.428 86.7116C21.7671 84.9634 21.9867 82.1078 22.426 76.4149C22.5907 74.2732 22.7829 71.77 22.8835 69.0379C20.6872 69.2667 17.5391 69.4132 15.0316 69.4132H14.9263C6.87299 69.4132 4.48904 68.2782 3.39999 66.5758C1.67038 63.8667 -1.74771 51.5564 1.0618 46.1518ZM15.4297 37.8641C15.2466 39.7953 15.059 41.7631 14.7662 43.7401C15.9009 43.8041 17.1456 43.8957 18.4863 44.0101C18.1324 43.2992 17.7495 42.5991 17.3377 41.9096C17.1533 41.5995 17.0317 41.2561 16.9799 40.899C16.9281 40.5419 16.9472 40.1781 17.036 39.8283C17.1248 39.4786 17.2816 39.1498 17.4975 38.8606C17.7133 38.5715 17.984 38.3278 18.294 38.1433C18.6041 37.9588 18.9475 37.8371 19.3045 37.7854C19.6616 37.7336 20.0253 37.7526 20.375 37.8415C20.7247 37.9303 21.0535 38.0871 21.3426 38.303C21.6317 38.5189 21.8754 38.7896 22.0599 39.0997C29.8387 52.133 28.6215 67.5964 27.9077 76.8359C27.7613 78.7305 27.592 80.9546 27.6103 82.3275C32.5567 82.4419 43.8176 83.2428 49.1849 83.6043C48.8326 74.0718 48.2149 60.8783 46.9337 48.5818C45.776 37.4568 44.3804 30.1668 43.0534 25.3891C40.7656 25.1786 36.5604 24.8399 32.1631 24.7438C20.0877 24.4876 18.262 26.2815 18.198 26.3501C16.3036 28.6886 15.8781 33.1459 15.4297 37.8641ZM384.354 46.6048C383.83 43.2232 382.499 40.0176 380.474 37.26C382.032 43.5205 382.851 49.9423 382.912 56.3936C384.266 53.3202 384.764 49.938 384.354 46.6048ZM370.324 87.5994C373.693 81.2091 375.91 74.2753 376.872 67.1159C376.756 66.5361 376.83 65.9342 377.083 65.3997C379.691 41.5526 368.709 20.1721 364.413 12.882C364.266 12.635 364.043 12.4429 363.777 12.3353C363.51 12.2278 363.216 12.2109 362.939 12.2871C346.691 16.6758 225.708 33.1597 42.9573 5.56453C42.8788 5.55369 42.8008 5.53841 42.724 5.51876C41.3705 5.39547 40.0179 5.7625 38.9124 6.55301C36.8578 7.9259 34.1399 11.2254 32.6848 19.2614C35.7963 19.3346 38.7522 19.5223 41.0401 19.719C40.189 17.9206 39.4615 17.0739 38.9718 16.6758C38.4272 16.2115 38.0855 15.5528 38.0193 14.8401C37.9532 14.1275 38.1679 13.4171 38.6177 12.8605C39.0675 12.3038 39.7169 11.9448 40.4275 11.8599C41.1381 11.775 41.8537 11.971 42.422 12.4061C44.5314 14.0948 46.2885 17.3897 47.7344 21.9065C47.7619 21.9797 47.7847 22.0575 47.8076 22.1353C52.4749 36.8482 54.0443 64.0451 54.9 90.2354C54.9458 91.6449 54.987 92.8713 55.0236 93.8964C68.4122 91.1506 124.813 82.2817 188.635 77.6459C225.461 74.9734 258.521 74.1771 286.89 75.28C321.716 76.6529 349.537 80.8814 369.574 87.9014C369.714 87.9528 369.869 87.9504 370.007 87.8946C370.146 87.8388 370.259 87.7337 370.324 87.5994ZM22.3528 253.028C28.3241 293.236 37.4527 292.385 37.5442 292.385C38.1943 292.309 38.8517 292.323 39.4981 292.426C40.5063 292.573 41.5314 292.562 42.5364 292.394C49.9582 291.154 76.0629 291.208 112.193 291.286C167.559 291.405 243.393 291.57 313.526 287.584C317.802 287.322 321.807 285.396 324.682 282.219C327.557 279.041 329.074 274.865 328.909 270.583C327.926 247.029 327.294 211.892 329.898 178.297C333.179 135.994 340.751 108.211 352.406 95.7178C354.353 93.5893 356.63 91.789 359.151 90.3864C270.665 65.5508 82.5284 93.9101 56.1263 99.2964C55.7648 99.3692 55.3969 99.406 55.0281 99.4063C53.6153 99.4037 52.2583 98.8543 51.2415 97.8733C50.2247 96.8922 49.6271 95.5555 49.5739 94.1435C49.5373 93.1184 49.4961 91.8554 49.4503 90.4367C49.4503 90.0203 49.4229 89.5855 49.4046 89.1416C43.6666 88.7252 35.4669 88.1714 30.3283 87.938C28.1914 105.712 16.1618 211.37 22.3528 253.028ZM5.92123 56.421C6.28778 58.7782 6.9361 61.0829 7.85223 63.2855C10.1859 64.2007 19.6988 63.9536 22.8927 63.5189C22.7974 58.8219 22.0757 54.1587 20.7467 49.6527C20.537 49.6779 20.325 49.6779 20.1152 49.6527C14.6243 49.1172 7.97574 48.8976 5.71075 49.3369C5.3996 50.5862 5.31268 52.9385 5.92123 56.421Z" fill="#FFF2F2"/>
</g>
<defs>
<clipPath id="clip0_964_522">
<rect width="390" height="298" fill="white" transform="matrix(-1 0 0 1 390 0)"/>
</clipPath>
</defs>
</svg>
