<svg width="263" height="125" viewBox="0 0 263 125" fill="none" xmlns="http://www.w3.org/2000/svg">
<g filter="url(#filter0_d_800_254)">
<path fill-rule="evenodd" clip-rule="evenodd" d="M156.747 92.625H30.4758C31.0535 58.6008 59.0989 31.1956 93.6112 31.1956C100.704 31.1956 107.524 32.3531 113.888 34.4877C113.812 33.3978 113.765 32.3002 113.746 31.1956H240.017C239.439 65.219 211.394 92.625 176.881 92.625C169.788 92.625 162.969 91.4674 156.604 89.3328C156.68 90.4227 156.728 91.5204 156.747 92.625Z" fill="white"/>
</g>
<path d="M99.5161 8.75205L99.4511 9.04914C100.605 6.66594 101.963 4.38664 103.507 2.23535C103.736 1.91825 104.063 1.68484 104.438 1.57174C104.813 1.45854 105.214 1.47174 105.581 1.60884C111.722 3.84844 160.593 15.1234 237.182 11.3054C239.913 11.1698 242.68 11.015 245.481 10.8402C245.481 10.8402 250.025 11.1588 250.72 19.5373C253.387 19.7707 255.97 20.2551 256.621 21.2208C257.016 21.8614 257.272 22.5779 257.371 23.324C257.746 25.5094 257.481 28.4001 257.732 30.9301C259.421 31.0374 261.062 31.2537 261.244 31.6896C262.034 33.5761 260.382 38.3327 259.606 39.3409C258.868 40.2863 251.923 39.0728 250.644 38.7064C250.471 40.5491 250.453 42.2539 250.438 43.65C250.415 45.9137 250.398 47.366 249.732 47.2896C248.029 47.0902 239.74 46.9688 238.504 46.9515C238.325 48.3898 238.186 49.5833 238.081 50.426C238.059 50.5981 238 50.7634 237.909 50.9103C237.817 51.0573 237.694 51.1825 237.549 51.2772C237.404 51.3721 237.24 51.434 237.068 51.459C236.896 51.4839 236.722 51.471 236.555 51.4215C235.652 51.1526 234.161 50.7455 232.169 50.2299C211.284 44.8346 135.149 27.6993 99.6491 36.75C99.3071 36.8376 98.9441 36.799 98.6271 36.6415C98.3111 36.484 98.0621 36.2179 97.9251 35.8921C97.1891 34.1417 95.9536 30.5179 95.7939 25.6313C88.0132 14.9425 99.5161 8.75205 99.5161 8.75205ZM245.776 38.0885L254.083 28.1835L249.844 24.4787L243.99 19.3724L254.083 28.1915L238.526 46.7414L245.776 38.0885Z" fill="#E5F2FF"/>
<path d="M92.1168 16.4124C93.1831 11.7075 97.3221 8.87918 98.5741 8.11618C99.7141 5.82718 101.037 3.63348 102.528 1.55638C102.91 1.02448 103.455 0.631885 104.08 0.438685C104.706 0.245085 105.377 0.262282 105.992 0.486182C108.26 1.31648 121.954 4.99819 147.554 7.82999C168.506 10.1435 202.485 12.3491 245.374 9.66349C246.617 9.57589 247.844 9.97258 248.799 10.7709C250.615 12.2184 251.673 14.8591 251.968 18.6169C251.966 18.6387 251.964 18.6587 251.963 18.6787C255.981 19.1596 257.095 20.0284 257.601 20.7694C258.76 22.4823 258.772 24.7934 258.791 27.2527C258.798 28.1661 258.805 29.1055 258.872 30.0183C261.873 30.3313 262.157 30.9981 262.343 31.4488C263.377 33.924 261.408 39.1837 260.547 40.2999C260.005 41.0056 258.917 41.4113 255.388 41.1025L255.344 41.0987C254.246 41.0026 252.871 40.8177 251.92 40.6335C251.853 41.8392 251.843 42.937 251.837 43.8815C251.82 46.392 251.799 47.6502 251.004 48.3522C250.839 48.4981 250.645 48.6075 250.435 48.6725C250.224 48.7378 250.002 48.7573 249.784 48.7299C248.508 48.584 243.016 48.4669 239.551 48.4144C239.534 48.6146 239.505 48.8001 239.483 48.9819C239.408 49.6074 239.342 50.1529 239.287 50.5983C239.209 51.2151 238.897 51.7776 238.413 52.1684C237.929 52.5592 237.314 52.7473 236.695 52.6937C236.534 52.6796 236.375 52.6493 236.22 52.6038C224.479 49.1191 137.96 28.2562 99.9541 37.946C99.3311 38.108 98.6711 38.0398 98.0951 37.7524C97.5181 37.4659 97.0651 36.9803 96.8199 36.3855C95.5154 33.1729 94.7701 29.7611 94.6166 26.2981C92.2382 22.9253 91.3937 19.6022 92.1168 16.4124ZM94.4644 16.9613C94.1544 18.4046 94.2435 19.9056 94.7203 21.3027C94.9927 18.4796 95.5973 15.6988 96.5217 13.0175C95.5278 14.1473 94.8219 15.5003 94.4644 16.9613ZM258.723 38.6944C259.208 37.7645 259.579 36.7804 259.832 35.7624C260.23 34.2604 260.284 33.2272 260.195 32.6762C259.22 32.3892 256.293 32.2379 253.873 32.2627C253.781 32.2656 253.688 32.2574 253.597 32.2384C252.842 34.1605 252.347 36.1748 252.124 38.2282C253.509 38.5331 257.666 39.0078 258.723 38.6944ZM249.338 46.2718C249.401 45.6716 249.41 44.6929 249.418 43.8557C249.46 39.7821 249.532 32.961 253.427 27.5548C253.52 27.4252 253.637 27.3152 253.772 27.231C253.907 27.1468 254.057 27.0902 254.214 27.0642C254.371 27.0383 254.531 27.0436 254.686 27.08C254.841 27.1162 254.987 27.1829 255.116 27.2757C255.245 27.3688 255.354 27.4864 255.438 27.6218C255.522 27.7572 255.577 27.9077 255.603 28.0648C255.628 28.2218 255.621 28.3824 255.584 28.537C255.547 28.6918 255.48 28.8375 255.386 28.9661C255.179 29.2529 254.986 29.5469 254.802 29.8438C255.396 29.8453 255.945 29.8529 256.444 29.8683C256.391 28.9913 256.383 28.1223 256.376 27.2697C256.357 25.1859 256.346 23.2284 255.615 22.1223C255.586 22.0874 254.863 21.2366 249.573 20.8828C247.641 20.7543 245.78 20.7409 244.764 20.7468C244 22.7883 243.1 25.9262 242.175 30.7543C241.142 36.0902 240.366 41.846 239.848 46.005C242.208 46.0418 247.17 46.1325 249.338 46.2718ZM99.0361 35.4503C99.0601 35.5103 99.1051 35.5589 99.1631 35.5873C99.2211 35.6156 99.2871 35.6219 99.3501 35.6051C108.4 33.2989 120.745 32.5051 136.051 33.247C148.518 33.8508 162.969 35.4664 178.995 38.0478C206.769 42.5233 231.128 48.5761 236.889 50.2836C236.944 49.8441 237.009 49.3086 237.084 48.6852C238.46 37.2488 240.192 25.3972 242.799 19.1332C242.802 19.0992 242.825 19.0669 242.84 19.034C243.648 17.1196 244.542 15.738 245.532 15.0708C245.663 14.9827 245.811 14.9204 245.965 14.8889C246.121 14.8578 246.281 14.8566 246.437 14.8869C246.593 14.9172 246.741 14.978 246.873 15.0655C247.005 15.153 247.119 15.266 247.207 15.3971C247.296 15.5287 247.358 15.676 247.389 15.8316C247.421 15.9871 247.421 16.1473 247.391 16.3031C247.36 16.4583 247.3 16.6067 247.212 16.7389C247.125 16.8712 247.013 16.9847 246.881 17.073C246.651 17.2285 246.3 17.5713 245.858 18.3263C246.867 18.3358 248.167 18.3669 249.533 18.4461C249.209 14.9307 248.174 13.3735 247.349 12.6857C246.884 12.2662 246.278 12.0379 245.653 12.0466C245.622 12.0519 245.592 12.0544 245.561 12.0549C210.536 14.267 180.883 13.3025 157.923 11.2939C127.721 8.65088 109.111 4.19558 105.158 2.75328C105.039 2.70938 104.91 2.70588 104.789 2.74258C104.668 2.77918 104.563 2.85468 104.49 2.95768C102.328 5.98528 96.6999 14.9271 96.9287 25.4701C97.0191 25.7138 97.0281 25.9805 96.9549 26.2298C97.1031 29.4023 97.8101 32.5236 99.0421 35.4509L99.0361 35.4503Z" fill="#7CB8FF"/>
<path d="M182.706 9.52604L174.752 8.66135C172.556 8.42257 170.582 10.0094 170.344 12.2056L167.749 36.065C167.511 38.2612 169.097 40.2351 171.294 40.4739L179.247 41.3386C181.443 41.5773 183.417 39.9905 183.656 37.7943L186.25 13.935C186.489 11.7388 184.902 9.76482 182.706 9.52604Z" fill="#7CB8FF"/>
<path d="M163.446 116.58L163.515 116.283C162.329 118.651 160.943 120.913 159.37 123.044C159.137 123.358 158.807 123.587 158.431 123.695C158.054 123.803 157.653 123.785 157.288 123.642C151.177 121.322 102.458 109.408 25.826 112.222C23.0932 112.321 20.3247 112.44 17.5207 112.578C17.5207 112.578 12.9814 112.2 12.3966 103.813C9.73252 103.545 7.15632 103.026 6.51852 102.052C6.13187 101.406 5.88545 100.687 5.79521 99.939C5.44968 97.749 5.75258 94.862 5.53458 92.329C3.84729 92.2 2.20928 91.962 2.03305 91.524C1.26774 89.627 2.98195 84.893 3.77191 83.894C4.52118 82.959 11.4501 84.263 12.7236 84.646C12.9212 82.806 12.9614 81.102 12.9948 79.706C13.0469 77.443 13.0839 75.991 13.7486 76.076C15.4489 76.298 23.7355 76.528 24.9715 76.561C25.1686 75.125 25.323 73.934 25.4401 73.093C25.4639 72.921 25.5247 72.756 25.6184 72.611C25.7122 72.465 25.8366 72.341 25.9829 72.248C26.1293 72.155 26.2941 72.096 26.466 72.073C26.6378 72.05 26.8125 72.065 26.978 72.117C27.8777 72.398 29.3632 72.824 31.3487 73.366C52.1608 79.035 128.064 97.167 163.68 88.583C164.024 88.5 164.386 88.543 164.7 88.704C165.015 88.866 165.261 89.135 165.393 89.463C166.105 91.223 167.294 94.863 167.389 99.751C175.029 110.541 163.446 116.58 163.446 116.58ZM17.5843 85.328L9.14722 95.123L13.3379 98.883L19.1241 104.066L9.14812 95.115L24.9463 76.771L17.5843 85.328Z" fill="#FFE5E5"/>
<path d="M170.945 109.017C169.817 113.707 165.642 116.482 164.38 117.228C163.21 119.502 161.859 121.678 160.34 123.735C159.952 124.262 159.402 124.648 158.773 124.833C158.146 125.017 157.474 124.992 156.863 124.76C154.606 123.9 140.961 120.039 115.401 116.872C94.4806 114.284 60.5336 111.633 17.6125 113.756C16.3695 113.827 15.1473 113.415 14.2024 112.604C12.4056 111.133 11.383 108.478 11.137 104.717C11.1393 104.695 11.1412 104.675 11.1433 104.655C7.13111 104.122 6.02922 103.238 5.53227 102.491C4.39619 100.763 4.41463 98.452 4.42778 95.992C4.43286 95.079 4.43848 94.1399 4.38293 93.226C1.38562 92.874 1.11147 92.203 0.930672 91.75C-0.0702277 89.262 1.96721 84.0279 2.84271 82.9229C3.39431 82.2249 4.48707 81.833 8.01181 82.188L8.05581 82.193C9.15261 82.303 10.5253 82.506 11.4739 82.703C11.5568 81.498 11.5804 80.401 11.5987 79.456C11.6494 76.946 11.6871 75.688 12.4907 74.997C12.6574 74.853 12.853 74.746 13.0643 74.684C13.2756 74.622 13.4977 74.605 13.7159 74.635C14.9895 74.798 20.48 74.987 23.9436 75.085C23.9637 74.885 23.9945 74.7 24.0189 74.518C24.102 73.894 24.175 73.349 24.236 72.904C24.3215 72.289 24.6421 71.73 25.1306 71.346C25.6189 70.962 26.2372 70.782 26.8556 70.843C27.0163 70.86 27.1749 70.892 27.3292 70.939C39.023 74.578 125.261 96.573 163.391 87.383C164.016 87.229 164.676 87.306 165.248 87.601C165.82 87.895 166.267 88.386 166.505 88.984C167.767 92.214 168.467 95.634 168.576 99.1C170.91 102.503 171.71 105.837 170.945 109.017ZM168.605 108.438C168.934 106.998 168.865 105.497 168.406 104.093C168.097 106.912 167.456 109.685 166.496 112.354C167.505 111.237 168.229 109.894 168.605 108.438ZM4.64585 84.553C4.14902 85.476 3.76399 86.455 3.49883 87.47C3.0812 88.966 3.01367 89.9989 3.09551 90.5509C4.06608 90.8509 6.99081 91.0399 9.41031 91.0469C9.50311 91.0459 9.59591 91.0549 9.68641 91.0749C10.4669 89.1629 10.9887 87.155 11.238 85.105C9.85731 84.782 5.70715 84.253 4.64585 84.553ZM14.1289 77.099C14.0584 77.698 14.0367 78.677 14.0171 79.514C13.9223 83.586 13.7612 90.406 9.79481 95.761C9.70091 95.889 9.58241 95.997 9.44641 96.08C9.31041 96.162 9.15941 96.2169 9.00211 96.2409C8.84481 96.2649 8.68441 96.2569 8.53011 96.2189C8.37571 96.1809 8.23051 96.1119 8.10261 96.017C7.97481 95.923 7.86701 95.804 7.78531 95.667C7.70361 95.531 7.64971 95.38 7.62671 95.222C7.60371 95.065 7.61201 94.904 7.65121 94.75C7.69041 94.596 7.75971 94.451 7.85501 94.324C8.06561 94.04 8.26281 93.7479 8.45021 93.4539C7.85671 93.4449 7.30821 93.43 6.809 93.408C6.85004 94.285 6.84743 95.154 6.84237 96.007C6.8347 98.091 6.81953 100.049 7.53611 101.164C7.56491 101.199 8.27691 102.059 13.5618 102.483C15.4914 102.637 17.3517 102.674 18.368 102.682C19.1588 100.65 20.1004 97.524 21.0889 92.709C22.191 87.387 23.0426 81.642 23.6144 77.49C21.2557 77.422 16.2956 77.267 14.1289 77.099ZM164.277 89.89C164.253 89.83 164.208 89.781 164.151 89.752C164.094 89.723 164.028 89.715 163.965 89.731C154.885 91.918 142.531 92.551 127.235 91.608C114.777 90.841 100.349 89.036 84.3588 86.244C56.6452 81.405 32.3678 75.034 26.6293 73.251C26.569 73.689 26.4969 74.224 26.414 74.846C24.8881 86.264 23.0013 98.092 20.3116 104.321C20.3082 104.355 20.2847 104.387 20.2693 104.42C19.4366 106.323 18.5243 107.693 17.5265 108.347C17.3938 108.434 17.2454 108.494 17.0896 108.523C16.9338 108.553 16.7737 108.551 16.6187 108.519C16.4634 108.487 16.3161 108.424 16.1852 108.335C16.0541 108.246 15.942 108.131 15.855 107.998C15.7683 107.866 15.7082 107.717 15.6789 107.562C15.6493 107.406 15.6507 107.246 15.683 107.091C15.7153 106.935 15.778 106.788 15.8672 106.657C15.9565 106.526 16.0707 106.414 16.2034 106.328C16.4349 106.174 16.7905 105.836 17.242 105.087C16.2334 105.064 14.9342 105.017 13.5692 104.92C13.8474 108.439 14.862 110.01 15.6772 110.708C16.1365 111.134 16.7395 111.37 17.3656 111.37C17.3959 111.365 17.4264 111.362 17.4572 111.363C52.5086 109.61 82.146 110.963 105.078 113.273C135.243 116.311 153.793 121.01 157.726 122.504C157.844 122.55 157.974 122.555 158.095 122.52C158.216 122.484 158.322 122.41 158.397 122.309C160.598 119.31 166.343 110.442 166.253 99.897C166.166 99.652 166.16 99.3859 166.237 99.1369C166.13 95.9629 165.464 92.833 164.271 89.89H164.277Z" fill="#FF7C7C"/>
<path d="M98.7058 84.526L90.7527 83.6614C88.5565 83.4226 86.5826 85.0094 86.3438 87.2056L83.7497 111.065C83.5109 113.261 85.0977 115.235 87.2939 115.474L95.247 116.339C97.4432 116.577 99.4172 114.991 99.656 112.794L102.25 88.935C102.489 86.7388 100.902 84.7648 98.7058 84.526Z" fill="#FF7C7C"/>
<path d="M73.3906 69.828C72.4427 69.794 71.5202 69.532 70.623 69.041C69.7428 68.567 68.9642 67.882 68.2871 66.984C67.627 66.07 67.1107 64.953 66.7383 63.633C66.3659 62.312 66.2135 60.7891 66.2812 59.0625C66.349 57.3359 66.6536 55.804 67.1953 54.4668C67.7539 53.1295 68.4395 52.0208 69.252 51.1406C70.0645 50.2435 70.9531 49.5833 71.918 49.1602C72.8997 48.737 73.8646 48.5761 74.8125 48.6776C75.388 48.7453 75.8958 48.9062 76.3359 49.1602C76.776 49.4141 77.1569 49.7272 77.4785 50.0996C77.8001 50.4551 78.071 50.8444 78.291 51.2676C78.5111 51.6738 78.6889 52.0716 78.8243 52.4609C78.9258 52.5625 79.0358 52.6132 79.1543 52.6132C79.4759 52.6301 79.7637 52.3932 80.0176 51.9023C80.2884 51.3945 80.5169 50.5651 80.7031 49.4141L81.4141 49.4901C81.2617 50.0657 81.0924 50.7344 80.9062 51.4961C80.737 52.2409 80.5762 53.0111 80.4238 53.8066C80.2884 54.6022 80.1699 55.3893 80.0684 56.168C79.9837 56.9466 79.9583 57.6491 79.9922 58.2754C79.7383 58.1738 79.5013 58.1061 79.2812 58.0723C79.0612 58.0215 78.8581 57.9876 78.6719 57.9707C78.4688 57.9538 78.2826 57.9538 78.1133 57.9707C78.1471 56.9212 78.1133 55.9141 78.0118 54.9492C77.9271 53.9844 77.7578 53.138 77.5039 52.4102C77.25 51.6654 76.9115 51.0645 76.4883 50.6074C76.082 50.1504 75.5742 49.8965 74.9648 49.8457C74.4232 49.7949 73.8392 49.9134 73.2129 50.2012C72.5866 50.472 71.9941 50.9714 71.4355 51.6992C70.877 52.4102 70.3945 53.3665 69.9883 54.5684C69.582 55.7702 69.3281 57.2682 69.2266 59.0625C69.1758 60.0104 69.2096 61.0091 69.3281 62.059C69.4466 63.108 69.6836 64.081 70.0391 64.979C70.3945 65.8589 70.877 66.595 71.4863 67.188C72.0957 67.763 72.8659 68.042 73.7969 68.025C74.5078 67.975 75.168 67.788 75.7773 67.467C76.3021 67.179 76.8184 66.747 77.3262 66.172C77.834 65.596 78.1979 64.767 78.418 63.684L79.2559 64.191C79.1204 64.632 78.9173 65.182 78.6465 65.842C78.3757 66.485 78.0033 67.111 77.5293 67.721C77.0723 68.33 76.4967 68.838 75.8027 69.244C75.1257 69.667 74.3216 69.862 73.3906 69.828ZM89.1582 53.5526C89.6829 53.5357 90.2161 53.6797 90.7578 53.9844C91.2995 54.2721 91.7904 54.7292 92.2305 55.3555C92.6875 55.9818 93.0514 56.7773 93.3223 57.7422C93.6101 58.6901 93.7539 59.8073 93.7539 61.0938C93.7539 62.38 93.5677 63.506 93.1953 64.471C92.8229 65.436 92.349 66.24 91.7734 66.883C91.2148 67.509 90.5885 67.975 89.8945 68.279C89.2005 68.601 88.5319 68.745 87.8887 68.711C87.2285 68.677 86.6615 68.525 86.1875 68.254C85.7305 67.983 85.3496 67.645 85.0449 67.238C85.028 67.695 85.0111 68.22 84.9941 68.812C84.9941 69.422 84.9857 70.023 84.9688 70.615C84.9688 71.208 84.9688 71.758 84.9688 72.266C84.9857 72.79 84.9941 73.214 84.9941 73.535C85.028 74.314 85.2565 74.898 85.6797 75.287C86.1029 75.693 86.6784 75.956 87.4062 76.074L87.2031 76.557C86.763 76.489 86.2214 76.447 85.5781 76.43C84.9349 76.43 84.2917 76.455 83.6484 76.506C83.0221 76.574 82.4382 76.658 81.8965 76.76C81.3548 76.878 80.9655 77.014 80.7285 77.166L80.5 76.734C80.8385 76.514 81.1432 76.303 81.4141 76.1C81.6849 75.896 81.9219 75.592 82.125 75.186C82.3451 74.796 82.5228 74.255 82.6582 73.561C82.8105 72.867 82.929 71.936 83.0137 70.768C83.0814 69.6 83.1322 68.457 83.166 67.34C83.1999 66.2059 83.2168 65.139 83.2168 64.141C83.2337 63.142 83.2422 62.211 83.2422 61.3477C83.2422 60.4674 83.2507 59.6973 83.2676 59.0371C83.2845 58.3431 83.2253 57.6999 83.0898 57.1074C82.9544 56.498 82.7513 55.9733 82.4805 55.5332C82.2096 55.0762 81.8711 54.7207 81.4648 54.4668C81.0755 54.196 80.627 54.0436 80.1191 54.0098L80.2715 53.4004C80.847 53.4681 81.3548 53.5188 81.7949 53.5526C82.252 53.5696 82.6667 53.5781 83.0391 53.5781C83.4115 53.5612 83.75 53.5358 84.0547 53.502C84.3763 53.4512 84.681 53.3835 84.9688 53.2988C84.901 53.9421 84.8503 54.5599 84.8164 55.1523C84.7826 55.7448 84.7572 56.2865 84.7402 56.7773C85.2311 55.8125 85.8574 55.0508 86.6191 54.4922C87.3978 53.9167 88.2441 53.6034 89.1582 53.5526ZM91.9258 60.6621C91.9427 60.1374 91.8835 59.5365 91.748 58.8594C91.6126 58.1654 91.401 57.5136 91.1133 56.9043C90.8255 56.2949 90.4531 55.7955 89.9961 55.4061C89.5391 55.0168 88.9974 54.8561 88.3711 54.9238C87.7279 55.0085 87.1862 55.2962 86.7461 55.7871C86.3229 56.2611 85.9759 56.828 85.7051 57.4882C85.4512 58.1483 85.265 58.8509 85.1465 59.5957C85.028 60.3405 84.9688 61.0007 84.9688 61.5762C84.9518 61.8809 84.9688 62.338 85.0195 62.947C85.0703 63.54 85.1888 64.132 85.375 64.725C85.5612 65.3 85.832 65.808 86.1875 66.248C86.5599 66.688 87.0508 66.908 87.6602 66.908C88.168 66.908 88.6673 66.756 89.1582 66.451C89.6491 66.13 90.0892 65.698 90.4785 65.156C90.8848 64.598 91.2148 63.938 91.4688 63.176C91.7396 62.414 91.8919 61.5762 91.9258 60.6621ZM102.641 53.5526C103.165 53.5357 103.699 53.6797 104.24 53.9844C104.782 54.2721 105.273 54.7292 105.713 55.3555C106.17 55.9818 106.534 56.7773 106.805 57.7422C107.092 58.6901 107.236 59.8073 107.236 61.0938C107.236 62.38 107.05 63.506 106.678 64.471C106.305 65.436 105.831 66.24 105.256 66.883C104.697 67.509 104.071 67.975 103.377 68.279C102.683 68.601 102.014 68.745 101.371 68.711C100.711 68.677 100.144 68.525 99.67 68.254C99.213 67.983 98.832 67.645 98.527 67.238C98.51 67.695 98.493 68.22 98.477 68.812C98.477 69.422 98.468 70.023 98.451 70.615C98.451 71.208 98.451 71.758 98.451 72.266C98.468 72.79 98.477 73.214 98.477 73.535C98.51 74.314 98.739 74.898 99.162 75.287C99.585 75.693 100.161 75.956 100.889 76.074L100.686 76.557C100.245 76.489 99.704 76.447 99.061 76.43C98.417 76.43 97.774 76.455 97.131 76.506C96.5046 76.574 95.9206 76.658 95.3789 76.76C94.8372 76.878 94.4479 77.014 94.2109 77.166L93.9824 76.734C94.321 76.514 94.6257 76.303 94.8965 76.1C95.1673 75.896 95.4043 75.592 95.6074 75.186C95.8275 74.796 96.0052 74.255 96.1406 73.561C96.293 72.867 96.4115 71.936 96.4961 70.768C96.5638 69.6 96.6146 68.457 96.6484 67.34C96.6823 66.2059 96.6992 65.139 96.6992 64.141C96.7161 63.142 96.7246 62.211 96.7246 61.3477C96.7246 60.4674 96.7331 59.6973 96.75 59.0371C96.7669 58.3431 96.7078 57.6999 96.5723 57.1074C96.4368 56.498 96.2337 55.9733 95.9629 55.5332C95.6921 55.0762 95.3535 54.7207 94.9473 54.4668C94.5579 54.196 94.1094 54.0436 93.6016 54.0098L93.7539 53.4004C94.3294 53.4681 94.8372 53.5188 95.2773 53.5526C95.7344 53.5696 96.1491 53.5781 96.5215 53.5781C96.8939 53.5612 97.232 53.5358 97.537 53.502C97.859 53.4512 98.163 53.3835 98.451 53.2988C98.383 53.9421 98.333 54.5599 98.299 55.1523C98.265 55.7448 98.24 56.2865 98.223 56.7773C98.714 55.8125 99.34 55.0508 100.102 54.4922C100.88 53.9167 101.727 53.6034 102.641 53.5526ZM105.408 60.6621C105.425 60.1374 105.366 59.5365 105.23 58.8594C105.095 58.1654 104.883 57.5136 104.596 56.9043C104.308 56.2949 103.936 55.7955 103.479 55.4061C103.021 55.0168 102.48 54.8561 101.854 54.9238C101.21 55.0085 100.669 55.2962 100.229 55.7871C99.805 56.2611 99.458 56.828 99.188 57.4882C98.934 58.1483 98.747 58.8509 98.629 59.5957C98.51 60.3405 98.451 61.0007 98.451 61.5762C98.434 61.8809 98.451 62.338 98.502 62.947C98.553 63.54 98.671 64.132 98.857 64.725C99.044 65.3 99.314 65.808 99.67 66.248C100.042 66.688 100.533 66.908 101.143 66.908C101.65 66.908 102.15 66.756 102.641 66.451C103.132 66.13 103.572 65.698 103.961 65.156C104.367 64.598 104.697 63.938 104.951 63.176C105.222 62.414 105.374 61.5762 105.408 60.6621Z" fill="#FF7C7C"/>
<path d="M138.043 65.156C137.874 65.156 137.747 65.105 137.662 65.004C137.594 64.902 137.561 64.792 137.561 64.674C137.561 64.555 137.594 64.454 137.662 64.369C137.73 64.268 137.831 64.225 137.967 64.242C137.865 64.141 137.696 64.098 137.459 64.115C137.273 64.149 137.095 64.276 136.926 64.496C136.773 64.699 136.714 64.945 136.748 65.232C136.765 65.537 136.892 65.825 137.129 66.096C137.366 66.367 137.696 66.493 138.119 66.477C138.339 66.477 138.551 66.417 138.754 66.299C138.957 66.18 139.135 66.028 139.287 65.842C139.439 65.639 139.558 65.41 139.643 65.156C139.727 64.902 139.77 64.64 139.77 64.369C139.753 64.081 139.685 63.802 139.566 63.531C139.448 63.243 139.279 62.99 139.059 62.77C138.855 62.533 138.602 62.346 138.297 62.211C137.992 62.059 137.645 61.9824 137.256 61.9824C136.477 61.9824 135.868 62.219 135.428 62.693C134.988 63.167 134.785 63.861 134.818 64.775C134.835 65.232 134.954 65.698 135.174 66.172C135.394 66.629 135.699 67.044 136.088 67.416C136.494 67.788 136.968 68.085 137.51 68.305C138.068 68.542 138.678 68.66 139.338 68.66C139.947 68.66 140.48 68.542 140.938 68.305C141.395 68.068 141.784 67.763 142.105 67.391C142.427 67.001 142.664 66.561 142.816 66.07C142.986 65.579 143.07 65.072 143.07 64.547C143.07 64.208 143.011 63.836 142.893 63.43C142.791 63.023 142.596 62.592 142.309 62.135C142.038 61.6777 141.674 61.1953 141.217 60.6875C140.76 60.1797 140.184 59.6634 139.49 59.1387C138.813 58.6139 138.17 58.123 137.561 57.666C136.968 57.209 136.443 56.7604 135.986 56.3203C135.546 55.8633 135.191 55.3893 134.92 54.8984C134.666 54.3906 134.539 53.8236 134.539 53.1973C134.539 52.571 134.649 51.9701 134.869 51.3945C135.106 50.8021 135.445 50.2858 135.885 49.8457C136.342 49.4056 136.9 49.0586 137.561 48.8047C138.221 48.5339 138.974 48.4154 139.82 48.4492C140.311 48.4661 140.777 48.5508 141.217 48.7031C141.674 48.8555 142.097 49.0078 142.486 49.1602C142.893 49.3125 143.273 49.4395 143.629 49.541C143.984 49.6257 144.314 49.6087 144.619 49.4902C144.755 49.4395 144.873 49.3633 144.975 49.2617C145.059 49.1771 145.144 49.0671 145.229 48.9316C145.313 48.7962 145.372 48.61 145.406 48.373L146.117 48.4238C146.066 48.7454 146.007 49.1517 145.939 49.6426C145.872 50.1335 145.821 50.6497 145.787 51.1914C145.77 51.7161 145.779 52.2409 145.812 52.7656C145.846 53.2734 145.931 53.7135 146.066 54.0859L145.406 54.2383C145.254 53.7643 145.076 53.2904 144.873 52.8164C144.687 52.3255 144.458 51.877 144.188 51.4707C143.934 51.0645 143.637 50.7005 143.299 50.3789C142.96 50.0573 142.562 49.8034 142.105 49.6172C141.699 49.4648 141.285 49.3633 140.861 49.3125C140.455 49.2448 140.057 49.2702 139.668 49.3887C139.296 49.5072 138.932 49.7188 138.576 50.0234C138.238 50.3281 137.924 50.7682 137.637 51.3438C137.349 51.9193 137.23 52.5625 137.281 53.2734C137.349 53.9844 137.544 54.6022 137.865 55.127C138.051 55.4655 138.271 55.7871 138.525 56.0918C138.796 56.3796 139.076 56.6589 139.363 56.9297C139.651 57.1836 139.947 57.4375 140.252 57.6914C140.574 57.9453 140.887 58.1992 141.191 58.4531C141.784 58.9779 142.334 59.5026 142.842 60.0273C143.35 60.5521 143.781 61.0938 144.137 61.6523C144.509 62.194 144.797 62.761 145 63.354C145.203 63.929 145.305 64.521 145.305 65.131C145.305 65.757 145.152 66.367 144.848 66.959C144.543 67.551 144.12 68.076 143.578 68.533C143.053 68.99 142.436 69.354 141.725 69.625C141.031 69.913 140.294 70.057 139.516 70.057C138.754 70.057 138.035 69.921 137.357 69.65C136.697 69.396 136.122 69.024 135.631 68.533C135.14 68.059 134.751 67.501 134.463 66.857C134.175 66.197 134.031 65.469 134.031 64.674C134.031 64.048 134.124 63.523 134.311 63.1C134.497 62.66 134.742 62.304 135.047 62.033C135.352 61.7624 135.699 61.5677 136.088 61.4492C136.477 61.3307 136.875 61.2715 137.281 61.2715C137.704 61.2715 138.111 61.3392 138.5 61.4746C138.906 61.5931 139.262 61.7878 139.566 62.059C139.871 62.329 140.108 62.676 140.277 63.1C140.464 63.523 140.557 64.022 140.557 64.598C140.557 65.004 140.464 65.368 140.277 65.689C140.108 65.994 139.888 66.257 139.617 66.477C139.346 66.68 139.05 66.832 138.729 66.934C138.424 67.035 138.136 67.077 137.865 67.061C137.594 67.044 137.349 66.976 137.129 66.857C136.909 66.739 136.714 66.595 136.545 66.426C136.393 66.257 136.274 66.079 136.189 65.893C136.105 65.689 136.062 65.495 136.062 65.309C136.079 65.139 136.113 64.953 136.164 64.75C136.232 64.547 136.333 64.361 136.469 64.191C136.604 64.005 136.773 63.861 136.977 63.76C137.18 63.641 137.425 63.582 137.713 63.582C137.984 63.582 138.204 63.667 138.373 63.836C138.542 63.988 138.635 64.183 138.652 64.42C138.686 64.623 138.635 64.801 138.5 64.953C138.382 65.089 138.229 65.156 138.043 65.156ZM154.115 55.1016C153.387 55.1016 152.77 55.2708 152.262 55.6094C151.771 55.931 151.373 56.3711 151.068 56.9297C150.764 57.4883 150.544 58.1315 150.408 58.8594C150.273 59.5872 150.222 60.349 150.256 61.1445C150.324 62.922 150.679 64.335 151.322 65.385C151.965 66.417 152.829 66.934 153.912 66.934C154.521 66.934 155.063 66.815 155.537 66.578C156.011 66.341 156.409 66.062 156.73 65.74C157.069 65.402 157.331 65.055 157.518 64.699C157.704 64.327 157.805 64.022 157.822 63.785H158.432C158.347 64.31 158.161 64.843 157.873 65.385C157.602 65.91 157.23 66.392 156.756 66.832C156.282 67.255 155.723 67.594 155.08 67.848C154.437 68.102 153.717 68.203 152.922 68.152C151.906 68.085 151.035 67.797 150.307 67.289C149.596 66.764 149.02 66.113 148.58 65.334C148.14 64.538 147.844 63.667 147.691 62.719C147.539 61.7539 147.522 60.8145 147.641 59.9004C147.742 58.9863 147.954 58.1654 148.275 57.4375C148.597 56.7096 148.995 56.0918 149.469 55.584C149.943 55.0762 150.476 54.6868 151.068 54.416C151.678 54.1452 152.321 54.0013 152.998 53.9844C153.523 53.9505 154.073 54.0436 154.648 54.2637C155.224 54.4668 155.791 54.7122 156.35 55C156.891 55.2878 157.306 55.3555 157.594 55.2031C157.882 55.0508 158.118 54.5345 158.305 53.6543L158.863 53.6289L158.736 59.6973L158.127 59.9004C158.076 59.5111 157.966 59.0456 157.797 58.5039C157.628 57.9453 157.382 57.4206 157.061 56.9297C156.739 56.4219 156.333 55.9902 155.842 55.6348C155.351 55.2793 154.775 55.1016 154.115 55.1016ZM171.127 57.0566C171.11 57.3444 171.076 57.5898 171.025 57.793C170.992 57.9961 170.966 58.1823 170.949 58.3516C170.932 58.5039 170.941 58.6478 170.975 58.7832C171.008 58.9186 171.102 59.071 171.254 59.2402C170.797 59.1048 170.382 59.0117 170.01 58.9609C169.637 58.8932 169.307 58.8424 169.02 58.8086C168.698 58.7917 168.41 58.7917 168.156 58.8086C168.326 58.5716 168.436 58.3092 168.486 58.0215C168.554 57.7337 168.605 57.3783 168.639 56.9551C168.656 56.6504 168.639 56.3372 168.588 56.0156C168.537 55.694 168.368 55.4909 168.08 55.4062C167.962 55.3893 167.835 55.3809 167.699 55.3809C167.564 55.3809 167.411 55.4232 167.242 55.5078C167.073 55.5755 166.878 55.694 166.658 55.8633C166.438 56.0326 166.193 56.278 165.922 56.5996C165.533 57.0566 165.186 57.5475 164.881 58.0723C164.576 58.5801 164.314 59.0879 164.094 59.5957C163.874 60.1035 163.696 60.5859 163.561 61.043C163.442 61.4831 163.374 61.8639 163.357 62.186C163.357 62.236 163.349 62.27 163.332 62.287C163.366 62.947 163.408 63.565 163.459 64.141C163.51 64.716 163.561 65.207 163.611 65.613C163.662 66.003 163.73 66.324 163.814 66.578C163.916 66.832 164.026 67.044 164.145 67.213C164.263 67.365 164.39 67.492 164.525 67.594C164.661 67.695 164.788 67.788 164.906 67.873L164.957 68.406C164.72 68.305 164.382 68.229 163.941 68.178C163.501 68.144 163.027 68.144 162.52 68.178C162.029 68.212 161.529 68.288 161.021 68.406C160.514 68.525 160.082 68.686 159.727 68.889L159.65 68.305C160.124 68.118 160.556 67.771 160.945 67.264C161.352 66.739 161.605 65.926 161.707 64.826C161.758 64.285 161.809 63.726 161.859 63.15C161.927 62.575 161.969 61.9909 161.986 61.3984C162.003 60.806 161.995 60.1966 161.961 59.5703C161.927 58.944 161.834 58.3008 161.682 57.6406C161.546 57.1667 161.394 56.7266 161.225 56.3203C161.089 55.9818 160.911 55.6686 160.691 55.3809C160.488 55.0762 160.26 54.89 160.006 54.8223L159.955 54.2383C160.158 54.2721 160.412 54.306 160.717 54.3398C161.038 54.3737 161.377 54.4076 161.732 54.4414C162.088 54.4583 162.452 54.4668 162.824 54.4668C163.197 54.4668 163.552 54.4499 163.891 54.416C163.823 54.7207 163.73 55.2878 163.611 56.1172C163.51 56.9466 163.425 57.8776 163.357 58.9102C163.577 58.4023 163.865 57.8353 164.221 57.209C164.576 56.5827 164.991 56.0072 165.465 55.4824C165.939 54.9577 166.472 54.5345 167.064 54.2129C167.657 53.8743 168.309 53.7389 169.02 53.8066C169.443 53.8574 169.79 54.0013 170.061 54.2383C170.348 54.4753 170.568 54.7546 170.721 55.0762C170.89 55.3978 171 55.7363 171.051 56.0918C171.118 56.4473 171.144 56.7689 171.127 57.0566ZM177.246 53.8574C177.957 53.8405 178.66 53.9844 179.354 54.2891C180.048 54.5938 180.674 55.0508 181.232 55.6602C181.791 56.2695 182.24 57.0143 182.578 57.8945C182.934 58.7578 183.111 59.748 183.111 60.8652C183.111 61.9824 182.967 62.973 182.68 63.836C182.409 64.682 182.036 65.4021 181.562 65.994C181.105 66.587 180.572 67.044 179.963 67.365C179.37 67.67 178.744 67.848 178.084 67.898C177.339 67.949 176.611 67.831 175.9 67.543C175.189 67.238 174.546 66.79 173.971 66.197C173.412 65.588 172.955 64.843 172.6 63.963C172.244 63.066 172.058 62.042 172.041 60.8906C172.007 59.7057 172.151 58.6816 172.473 57.8184C172.811 56.9382 173.234 56.2104 173.742 55.6348C174.25 55.0592 174.817 54.6276 175.443 54.3398C176.07 54.0521 176.671 53.8913 177.246 53.8574ZM178.312 66.223C178.668 66.189 179.049 66.036 179.455 65.766C179.861 65.495 180.217 65.097 180.521 64.572C180.826 64.031 181.046 63.37 181.182 62.592C181.334 61.7962 181.326 60.8652 181.156 59.7988C180.987 58.7324 180.733 57.8691 180.395 57.209C180.056 56.5488 179.684 56.041 179.277 55.6855C178.888 55.3132 178.49 55.0762 178.084 54.9746C177.678 54.8561 177.322 54.8053 177.018 54.8223C176.527 54.8561 176.112 55.0254 175.773 55.3301C175.435 55.6178 175.147 55.9987 174.91 56.4727C174.69 56.9297 174.521 57.4544 174.402 58.0469C174.301 58.6393 174.242 59.2572 174.225 59.9004C174.191 60.7129 174.25 61.5254 174.402 62.338C174.555 63.15 174.817 63.878 175.189 64.521C175.545 65.1481 175.993 65.605 176.535 65.893C177.077 66.18 177.669 66.29 178.312 66.223ZM190.398 67.34C189.924 67.272 189.484 67.23 189.078 67.213C188.672 67.196 188.308 67.179 187.986 67.162H186.945C186.573 67.179 186.209 67.196 185.854 67.213C185.549 67.23 185.227 67.255 184.889 67.289C184.567 67.306 184.279 67.331 184.025 67.365L183.873 67.035C184.262 66.9 184.584 66.73 184.838 66.527C185.092 66.307 185.286 66.087 185.422 65.867C185.591 65.613 185.701 65.351 185.752 65.08C185.87 64.505 185.964 63.811 186.031 62.998C186.116 62.169 186.167 61.2799 186.184 60.332C186.217 59.3672 186.226 58.3854 186.209 57.3867C186.192 56.3711 186.158 55.3893 186.107 54.4414C186.057 53.4935 185.98 52.6217 185.879 51.8262C185.794 51.0137 185.693 50.3366 185.574 49.7949C185.473 49.4564 185.329 49.1348 185.143 48.8301C184.99 48.5762 184.779 48.3392 184.508 48.1191C184.254 47.8822 183.924 47.7298 183.518 47.6621L183.492 47.2812C183.814 47.3151 184.118 47.3405 184.406 47.3574C184.694 47.3574 184.948 47.3574 185.168 47.3574H185.854C186.158 47.3405 186.454 47.3151 186.742 47.2812C186.979 47.2474 187.233 47.2135 187.504 47.1797C187.775 47.1458 188.003 47.0951 188.189 47.0273C188.105 49.3294 188.037 51.2507 187.986 52.791C187.952 54.3145 187.919 55.5417 187.885 56.4727C187.851 57.556 187.826 58.4108 187.809 59.0371C187.792 59.6634 187.792 60.3405 187.809 61.0684C187.826 61.7962 187.859 62.499 187.91 63.176C187.978 63.836 188.062 64.428 188.164 64.953C188.266 65.478 188.393 65.85 188.545 66.07C188.63 66.223 188.765 66.358 188.951 66.477C189.087 66.578 189.273 66.671 189.51 66.756C189.747 66.84 190.035 66.9 190.373 66.934L190.398 67.34ZM196.797 67.34C196.323 67.272 195.883 67.23 195.477 67.213C195.07 67.196 194.706 67.179 194.385 67.162H193.344C192.971 67.179 192.607 67.196 192.252 67.213C191.947 67.23 191.626 67.255 191.287 67.289C190.965 67.306 190.678 67.331 190.424 67.365L190.271 67.035C190.661 66.9 190.982 66.73 191.236 66.527C191.49 66.307 191.685 66.087 191.82 65.867C191.99 65.613 192.1 65.351 192.15 65.08C192.269 64.505 192.362 63.811 192.43 62.998C192.514 62.169 192.565 61.2799 192.582 60.332C192.616 59.3672 192.624 58.3854 192.607 57.3867C192.59 56.3711 192.557 55.3893 192.506 54.4414C192.455 53.4935 192.379 52.6217 192.277 51.8262C192.193 51.0137 192.091 50.3366 191.973 49.7949C191.871 49.4564 191.727 49.1348 191.541 48.8301C191.389 48.5762 191.177 48.3392 190.906 48.1191C190.652 47.8822 190.322 47.7298 189.916 47.6621L189.891 47.2812C190.212 47.3151 190.517 47.3405 190.805 47.3574C191.092 47.3574 191.346 47.3574 191.566 47.3574H192.252C192.557 47.3405 192.853 47.3151 193.141 47.2812C193.378 47.2474 193.632 47.2135 193.902 47.1797C194.173 47.1458 194.402 47.0951 194.588 47.0273C194.503 49.3294 194.436 51.2507 194.385 52.791C194.351 54.3145 194.317 55.5417 194.283 56.4727C194.249 57.556 194.224 58.4108 194.207 59.0371C194.19 59.6634 194.19 60.3405 194.207 61.0684C194.224 61.7962 194.258 62.499 194.309 63.176C194.376 63.836 194.461 64.428 194.562 64.953C194.664 65.478 194.791 65.85 194.943 66.07C195.028 66.223 195.163 66.358 195.35 66.477C195.485 66.578 195.671 66.671 195.908 66.756C196.145 66.84 196.433 66.9 196.771 66.934L196.797 67.34ZM206.293 66.857C206.191 67.213 206.039 67.594 205.836 68C205.65 68.406 205.396 68.787 205.074 69.143C204.753 69.498 204.363 69.794 203.906 70.031C203.466 70.285 202.958 70.429 202.383 70.463C201.977 70.497 201.587 70.463 201.215 70.361C200.859 70.277 200.529 70.15 200.225 69.98C199.937 69.811 199.683 69.6171 199.463 69.396C199.243 69.1761 199.074 68.956 198.955 68.736C198.752 68.296 198.642 67.856 198.625 67.416C198.608 66.959 198.693 66.561 198.879 66.223C199.15 65.783 199.438 65.503 199.742 65.385C200.064 65.266 200.368 65.19 200.656 65.156C200.927 65.122 201.206 65.139 201.494 65.207C201.782 65.275 202.036 65.385 202.256 65.537C202.476 65.689 202.654 65.884 202.789 66.121C202.924 66.341 202.984 66.595 202.967 66.883C202.95 67.12 202.882 67.34 202.764 67.543C202.662 67.729 202.527 67.89 202.357 68.025C202.188 68.178 202.01 68.288 201.824 68.355C201.638 68.44 201.469 68.474 201.316 68.457C201.079 68.423 200.834 68.339 200.58 68.203C200.326 68.085 200.182 67.898 200.148 67.645C200.115 67.391 200.14 67.162 200.225 66.959C200.326 66.739 200.479 66.587 200.682 66.502C200.986 66.383 201.223 66.341 201.393 66.375C201.579 66.392 201.706 66.451 201.773 66.553C201.858 66.654 201.909 66.764 201.926 66.883C201.943 67.001 201.943 67.094 201.926 67.162C201.875 67.331 201.79 67.45 201.672 67.518C201.57 67.585 201.435 67.611 201.266 67.594C201.096 67.56 200.885 67.441 200.631 67.238C200.58 67.424 200.589 67.577 200.656 67.695C200.724 67.814 200.809 67.898 200.91 67.949C201.029 68.017 201.181 68.059 201.367 68.076C201.723 68.11 202.002 68 202.205 67.746C202.408 67.475 202.493 67.179 202.459 66.857C202.442 66.536 202.29 66.248 202.002 65.994C201.714 65.74 201.266 65.63 200.656 65.664C200.284 65.698 199.996 65.816 199.793 66.02C199.59 66.223 199.454 66.468 199.387 66.756C199.319 67.027 199.319 67.314 199.387 67.619C199.471 67.924 199.607 68.186 199.793 68.406C199.996 68.643 200.225 68.829 200.479 68.965C200.732 69.1 200.995 69.193 201.266 69.244C201.536 69.295 201.807 69.303 202.078 69.27C202.349 69.253 202.603 69.193 202.84 69.092C203.111 68.973 203.382 68.762 203.652 68.457C203.923 68.152 204.126 67.788 204.262 67.365C204.397 66.925 204.423 66.443 204.338 65.918C204.27 65.376 204.025 64.826 203.602 64.268C203.382 63.963 202.984 63.607 202.408 63.201C201.833 62.778 201.215 62.329 200.555 61.8555C199.895 61.3646 199.26 60.8568 198.65 60.332C198.058 59.8073 197.626 59.2656 197.355 58.707C197.102 58.1654 196.966 57.5391 196.949 56.8281C196.932 56.1172 197.093 55.4316 197.432 54.7715C197.77 54.1113 198.32 53.5189 199.082 52.9941C199.861 52.4694 200.902 52.1224 202.205 51.9531C203.136 51.8346 203.982 51.9023 204.744 52.1562C205.523 52.4102 206.166 52.7826 206.674 53.2734C207.182 53.7643 207.52 54.3568 207.689 55.0508C207.876 55.7279 207.842 56.4388 207.588 57.1836C207.52 57.4206 207.402 57.666 207.232 57.9199C207.08 58.1738 206.877 58.4108 206.623 58.6309C206.386 58.8509 206.098 59.0286 205.76 59.1641C205.421 59.2826 205.049 59.3249 204.643 59.291C204.338 59.2741 204.016 59.1979 203.678 59.0625C203.339 58.9102 203.026 58.724 202.738 58.5039C202.451 58.2669 202.197 58.0046 201.977 57.7168C201.757 57.429 201.621 57.1243 201.57 56.8027C201.435 56.0918 201.545 55.5163 201.9 55.0762C202.273 54.6361 202.84 54.3822 203.602 54.3145C203.94 54.2975 204.253 54.3568 204.541 54.4922C204.829 54.6107 205.074 54.7715 205.277 54.9746C205.48 55.1777 205.633 55.4147 205.734 55.6855C205.836 55.9395 205.87 56.1764 205.836 56.3965C205.734 57.1582 205.311 57.5898 204.566 57.6914C204.296 57.7253 203.999 57.6829 203.678 57.5645C203.373 57.446 203.153 57.2174 203.018 56.8789C202.933 56.6419 202.916 56.3711 202.967 56.0664C203.018 55.7448 203.187 55.5078 203.475 55.3555C203.61 55.2878 203.754 55.2624 203.906 55.2793C204.076 55.2962 204.219 55.347 204.338 55.4316C204.456 55.4993 204.541 55.6009 204.592 55.7363C204.643 55.8717 204.643 56.0326 204.592 56.2188C204.541 56.3372 204.465 56.4303 204.363 56.498C204.279 56.5488 204.16 56.5827 204.008 56.5996C203.855 56.5996 203.652 56.5404 203.398 56.4219C203.415 56.6419 203.475 56.8027 203.576 56.9043C203.695 57.0059 203.822 57.0736 203.957 57.1074C204.109 57.1582 204.27 57.1836 204.439 57.1836C204.744 57.1497 204.973 57.0651 205.125 56.9297C205.294 56.7773 205.396 56.6081 205.43 56.4219C205.464 56.2188 205.43 56.0072 205.328 55.7871C205.227 55.5671 205.057 55.3555 204.82 55.1523C204.482 54.8984 204.084 54.7799 203.627 54.7969C203.17 54.7969 202.772 54.9831 202.434 55.3555C201.993 55.8971 201.875 56.4303 202.078 56.9551C202.298 57.4798 202.73 57.9115 203.373 58.25C203.475 58.3008 203.593 58.36 203.729 58.4277C203.881 58.4954 204.05 58.5378 204.236 58.5547C204.439 58.5547 204.66 58.5208 204.896 58.4531C205.133 58.3854 205.404 58.25 205.709 58.0469C206.166 57.7422 206.437 57.3359 206.521 56.8281C206.606 56.3203 206.564 55.8125 206.395 55.3047C206.242 54.7969 205.971 54.3398 205.582 53.9336C205.21 53.5273 204.778 53.2734 204.287 53.1719C203.745 53.0703 203.255 53.0449 202.814 53.0957C202.391 53.1296 202.01 53.2142 201.672 53.3496C201.333 53.4681 201.029 53.6204 200.758 53.8066C200.487 53.9759 200.25 54.1452 200.047 54.3145C199.962 54.3991 199.835 54.5514 199.666 54.7715C199.497 54.9915 199.353 55.2708 199.234 55.6094C199.116 55.931 199.057 56.3118 199.057 56.752C199.074 57.1751 199.226 57.6322 199.514 58.123C199.785 58.597 200.132 59.0117 200.555 59.3672C200.995 59.7057 201.452 60.0273 201.926 60.332C202.417 60.6198 202.899 60.9076 203.373 61.1953C203.847 61.4661 204.27 61.7624 204.643 62.084C205.049 62.423 205.37 62.812 205.607 63.252C205.861 63.675 206.048 64.115 206.166 64.572C206.301 65.012 206.369 65.436 206.369 65.842C206.386 66.248 206.361 66.587 206.293 66.857Z" fill="#7CB8FF"/>
<defs>
<filter id="filter0_d_800_254" x="20.4758" y="21.1956" width="229.541" height="81.4294" filterUnits="userSpaceOnUse" color-interpolation-filters="sRGB">
<feFlood flood-opacity="0" result="BackgroundImageFix"/>
<feColorMatrix in="SourceAlpha" type="matrix" values="0 0 0 0 0 0 0 0 0 0 0 0 0 0 0 0 0 0 127 0" result="hardAlpha"/>
<feOffset/>
<feGaussianBlur stdDeviation="5"/>
<feComposite in2="hardAlpha" operator="out"/>
<feColorMatrix type="matrix" values="0 0 0 0 0 0 0 0 0 0 0 0 0 0 0 0 0 0 0.1 0"/>
<feBlend mode="normal" in2="BackgroundImageFix" result="effect1_dropShadow_800_254"/>
<feBlend mode="normal" in="SourceGraphic" in2="effect1_dropShadow_800_254" result="shape"/>
</filter>
</defs>
</svg>
