<svg width="14" height="14" viewBox="0 0 14 14" fill="none" xmlns="http://www.w3.org/2000/svg">
<path d="M0.959867 10.2685C1.114 11.7092 2.2727 12.8679 3.71266 13.0284C4.78221 13.1476 5.88037 13.25 7 13.25C8.11963 13.25 9.21779 13.1476 10.2873 13.0284C11.7273 12.8679 12.886 11.7092 13.0401 10.2685C13.1539 9.20502 13.25 8.11315 13.25 7C13.25 5.88684 13.1539 4.79498 13.0401 3.73147C12.886 2.29082 11.7273 1.13211 10.2873 0.971609C9.21779 0.852392 8.11963 0.75 7 0.75C5.88037 0.75 4.78221 0.852392 3.71266 0.971609C2.2727 1.13211 1.114 2.29082 0.959867 3.73147C0.846083 4.79498 0.75 5.88684 0.75 7C0.75 8.11315 0.846084 9.20502 0.959867 10.2685Z" fill="#80AEFF" fill-opacity="0.1"/>
<path d="M10.2873 13.0284L10.2043 12.283L10.2873 13.0284ZM3.71266 0.971609L3.79574 1.71699L3.71266 0.971609ZM7 12.5C5.9234 12.5 4.85884 12.4015 3.79574 12.283L3.62957 13.7738C4.70557 13.8937 5.83734 14 7 14V12.5ZM10.2043 12.283C9.14116 12.4015 8.07661 12.5 7 12.5V14C8.16266 14 9.29443 13.8937 10.3704 13.7738L10.2043 12.283ZM13.7859 10.3483C13.9004 9.27761 14 8.15395 14 7H12.5C12.5 8.07236 12.4074 9.13242 12.2944 10.1887L13.7859 10.3483ZM14 7C14 5.84605 13.9004 4.72239 13.7859 3.65168L12.2944 3.81126C12.4074 4.86757 12.5 5.92764 12.5 7H14ZM7 1.5C8.07661 1.5 9.14116 1.59849 10.2043 1.71699L10.3704 0.226225C9.29443 0.10629 8.16266 0 7 0V1.5ZM3.79574 1.71699C4.85884 1.59849 5.9234 1.5 7 1.5V0C5.83734 0 4.70557 0.10629 3.62957 0.226225L3.79574 1.71699ZM0.214123 3.65168C0.09957 4.72239 0 5.84604 0 7H1.5C1.5 5.92764 1.5926 4.86757 1.70561 3.81126L0.214123 3.65168ZM0 7C0 8.15395 0.0995702 9.27761 0.214123 10.3483L1.70561 10.1887C1.5926 9.13242 1.5 8.07236 1.5 7H0ZM13.7859 3.65168C13.5941 1.85954 12.1584 0.425517 10.3704 0.226225L10.2043 1.71699C11.2962 1.83871 12.1779 2.72211 12.2944 3.81126L13.7859 3.65168ZM10.3704 13.7738C12.1584 13.5745 13.5941 12.1405 13.7859 10.3483L12.2944 10.1887C12.1779 11.2779 11.2962 12.1613 10.2043 12.283L10.3704 13.7738ZM3.62957 0.226225C1.84163 0.425517 0.405861 1.85954 0.214123 3.65168L1.70561 3.81126C1.82214 2.7221 2.70378 1.83871 3.79574 1.71699L3.62957 0.226225ZM3.79574 12.283C2.70378 12.1613 1.82214 11.2779 1.70561 10.1887L0.214123 10.3483C0.405862 12.1405 1.84163 13.5745 3.62957 13.7738L3.79574 12.283Z" fill="#80AEFF" fill-opacity="0.99"/>
<path d="M6.99219 10.2061L6.99219 6.70605" stroke="#80AEFF" stroke-opacity="0.99" stroke-width="1.5" stroke-linecap="round"/>
<path d="M6.99609 4.46777C7.06513 4.46777 7.12109 4.52374 7.12109 4.59277C7.12109 4.66181 7.06513 4.71777 6.99609 4.71777" stroke="#80AEFF" stroke-opacity="0.99" stroke-width="1.5"/>
<path d="M6.99609 4.46777C6.92706 4.46777 6.87109 4.52374 6.87109 4.59277C6.87109 4.66181 6.92706 4.71777 6.99609 4.71777" stroke="#80AEFF" stroke-opacity="0.99" stroke-width="1.5"/>
</svg>
