<svg width="14" height="14" viewBox="0 0 14 14" fill="none" xmlns="http://www.w3.org/2000/svg">
<path d="M6.99722 6.40859C6.99722 6.04753 7.29088 5.82606 7.80896 5.47989C8.28951 5.1588 8.54298 4.74228 8.43023 4.17543C8.31748 3.60859 7.84911 3.14022 7.28227 3.02747C6.39247 2.85048 5.53613 3.55322 5.53613 4.46044" stroke="#FF8080" stroke-opacity="0.99" stroke-width="1.5" stroke-linecap="round" stroke-linejoin="round"/>
<path d="M2.73853 10.5476C1.84499 10.4645 1.09401 9.81089 0.970278 8.92207C0.828692 7.905 0.75 6.85938 0.75 5.78305C0.75 4.66871 0.828721 3.57223 0.980308 2.52244C1.1002 1.69217 1.7779 1.06547 2.6122 0.977844C4.02162 0.829808 5.49414 0.75 7 0.75C8.50118 0.75 9.94769 0.834613 11.3584 0.980476C12.2069 1.06821 12.896 1.70793 13.0165 2.55241C13.1651 3.59408 13.25 4.67835 13.25 5.78305C13.25 6.87901 13.1572 7.9445 13.0111 8.979C12.8896 9.83961 12.1895 10.4964 11.3248 10.5843C9.92775 10.7262 8.48748 10.8161 7 10.8161C6.96439 10.8161 6.92881 10.816 6.89324 10.8159C5.84436 12.0224 5.04019 12.6187 3.63462 13.25V10.6306C3.40672 10.61 3.18013 10.5888 2.95493 10.5678C2.88265 10.5611 2.81052 10.5543 2.73853 10.5476Z" fill="#FF8080" fill-opacity="0.1" stroke="#FF8080" stroke-opacity="0.99" stroke-width="1.5" stroke-linecap="round" stroke-linejoin="round"/>
<path d="M6.99609 8.48828C6.92706 8.48828 6.87109 8.43232 6.87109 8.36328C6.87109 8.29425 6.92706 8.23828 6.99609 8.23828" stroke="#FF8080" stroke-opacity="0.99" stroke-width="1.5"/>
<path d="M6.99609 8.48828C7.06513 8.48828 7.12109 8.43232 7.12109 8.36328C7.12109 8.29425 7.06513 8.23828 6.99609 8.23828" stroke="#FF8080" stroke-opacity="0.99" stroke-width="1.5"/>
</svg>
