<svg width="14" height="14" viewBox="0 0 14 14" fill="none" xmlns="http://www.w3.org/2000/svg">
<path d="M6.45059 0.849664C5.77382 0.784187 5.07675 0.75 4.36477 0.75C3.65279 0.75 2.95571 0.784187 2.27894 0.849665C1.53423 0.921717 0.964513 1.67654 0.930874 2.59563C0.878922 4.01513 0.851562 5.48869 0.851562 7C0.851562 8.5113 0.878922 9.98487 0.930874 11.4044C0.964513 12.3235 1.53423 13.0783 2.27894 13.1503C2.95571 13.2158 3.65279 13.25 4.36477 13.25C5.07675 13.25 5.77382 13.2158 6.45059 13.1503C7.1953 13.0783 7.76502 12.3235 7.79866 11.4044C7.81719 10.8979 7.8326 10.3846 7.84475 9.86507V4.13496C7.8326 3.61546 7.81719 3.1021 7.79866 2.59563C7.76502 1.67654 7.1953 0.921715 6.45059 0.849664Z" fill="#FF8080" fill-opacity="0.1"/>
<path d="M9.14083 7.09043C9.14083 7.58613 9.21027 8.28396 9.28191 8.87194C9.35492 9.47121 9.95449 9.85505 10.5071 9.6121C11.5188 9.16734 12.4513 8.50756 13.1039 7.54804C13.2919 7.27165 13.2919 6.90919 13.1039 6.63279C12.4514 5.67324 11.5189 5.01348 10.5072 4.56874C9.95456 4.3258 9.355 4.70961 9.28196 5.30885C9.2103 5.89685 9.14083 6.5947 9.14083 7.09043Z" fill="#FF8080" fill-opacity="0.1"/>
<path d="M9.28191 8.87194L8.53741 8.96265L9.28191 8.87194ZM9.28196 5.30885L8.53747 5.21811L8.53747 5.21811L9.28196 5.30885ZM10.5071 9.6121L10.809 10.2987L10.5071 9.6121ZM13.1039 7.54804L12.4837 7.12625L12.4837 7.12625L13.1039 7.54804ZM10.5072 4.56874L10.809 3.88215L10.809 3.88215L10.5072 4.56874ZM13.1039 6.63279L13.7241 6.21103L13.7241 6.21103L13.1039 6.63279ZM8.53741 8.96265C8.46561 8.37327 8.39083 7.63579 8.39083 7.09043L9.89083 7.09043C9.89083 7.53647 9.95493 8.19464 10.0264 8.78124L8.53741 8.96265ZM10.0265 5.39959C9.95496 5.9862 9.89083 6.64438 9.89083 7.09043L8.39083 7.09043C8.39083 6.54502 8.46564 5.8075 8.53747 5.21811L10.0265 5.39959ZM10.2053 8.92552C11.1252 8.52113 11.9303 7.93995 12.4837 7.12625L13.7241 7.96984C12.9723 9.07518 11.9125 9.81355 10.809 10.2987L10.2053 8.92552ZM10.809 3.88215C11.9125 4.36726 12.9723 5.10563 13.7241 6.21103L12.4838 7.05456C11.9304 6.24086 11.1252 5.6597 10.2054 5.25532L10.809 3.88215ZM8.53747 5.21811C8.66428 4.17765 9.74397 3.41395 10.809 3.88215L10.2054 5.25532C10.1819 5.24501 10.1659 5.24414 10.1548 5.24506C10.1421 5.24611 10.126 5.25053 10.108 5.26157C10.0716 5.28404 10.035 5.32962 10.0265 5.39959L8.53747 5.21811ZM12.4837 7.12625C12.4986 7.10438 12.4986 7.0764 12.4838 7.05456L13.7241 6.21103C14.0852 6.74198 14.0852 7.43892 13.7241 7.96984L12.4837 7.12625ZM10.0264 8.78124C10.0349 8.85121 10.0715 8.8968 10.108 8.91927C10.1259 8.93031 10.142 8.93473 10.1547 8.93578C10.1658 8.9367 10.1818 8.93583 10.2053 8.92552L10.809 10.2987C9.74389 10.7669 8.66418 10.0031 8.53741 8.96265L10.0264 8.78124Z" fill="#FF8080" fill-opacity="0.99"/>
<path d="M2.27894 0.849665L2.35116 1.59618L2.27894 0.849665ZM0.930874 2.59563L0.181376 2.5682L0.930874 2.59563ZM7.04916 2.62306C7.06431 3.037 7.41215 3.36028 7.82609 3.34513C8.24002 3.32998 8.5633 2.98214 8.54815 2.5682L7.04916 2.62306ZM6.45059 0.849664L6.52282 0.10315L6.45059 0.849664ZM0.930874 11.4044L0.181376 11.4318L0.930874 11.4044ZM2.27894 13.1503L2.20671 13.8968L2.27894 13.1503ZM8.54815 11.4318C8.5633 11.0179 8.24002 10.67 7.82609 10.6549C7.41215 10.6397 7.06431 10.963 7.04916 11.3769L8.54815 11.4318ZM6.45059 13.1503L6.52282 13.8969L6.45059 13.1503ZM4.36477 1.5C5.05279 1.5 5.72576 1.53304 6.37837 1.59618L6.52282 0.10315C5.82188 0.0353343 5.1007 0 4.36477 0V1.5ZM2.35116 1.59618C3.00377 1.53304 3.67675 1.5 4.36477 1.5V0C3.62884 0 2.90766 0.0353346 2.20671 0.103151L2.35116 1.59618ZM1.60156 7C1.60156 5.49769 1.62876 4.03327 1.68037 2.62306L0.181376 2.5682C0.129084 3.99698 0.101562 5.47969 0.101562 7H1.60156ZM1.68037 11.3769C1.62876 9.96672 1.60156 8.5023 1.60156 7H0.101562C0.101562 8.5203 0.129084 10.003 0.181376 11.4318L1.68037 11.3769ZM4.36477 12.5C3.67675 12.5 3.00377 12.467 2.35117 12.4038L2.20671 13.8968C2.90766 13.9647 3.62884 14 4.36477 14V12.5ZM6.37837 12.4038C5.72577 12.467 5.05279 12.5 4.36477 12.5V14C5.1007 14 5.82188 13.9647 6.52282 13.8969L6.37837 12.4038ZM2.20671 0.103151C0.962029 0.223575 0.223561 1.4156 0.181376 2.5682L1.68037 2.62306C1.70546 1.93748 2.10643 1.61986 2.35116 1.59618L2.20671 0.103151ZM8.54815 2.5682C8.50597 1.4156 7.7675 0.223573 6.52282 0.10315L6.37837 1.59618C6.6231 1.61986 7.02407 1.93748 7.04916 2.62306L8.54815 2.5682ZM0.181376 11.4318C0.223561 12.5844 0.96203 13.7764 2.20671 13.8968L2.35117 12.4038C2.10643 12.3801 1.70546 12.0625 1.68037 11.3769L0.181376 11.4318ZM7.04916 11.3769C7.02407 12.0625 6.62311 12.3801 6.37837 12.4038L6.52282 13.8969C7.7675 13.7764 8.50597 12.5844 8.54815 11.4318L7.04916 11.3769Z" fill="#FF8080" fill-opacity="0.99"/>
<path d="M4.0037 7.09082L9.14062 7.09082" stroke="#FF8080" stroke-opacity="0.99" stroke-width="1.5" stroke-linecap="round" stroke-linejoin="round"/>
</svg>
